<svg width="32" height="32" xmlns="http://www.w3.org/2000/svg"><circle cx="16" cy="16" r="16" style="fill:#dbe9fa"/><path d="M15 15v4.17a3 3 0 0 0 0 5.66V30h15V15Z" style="fill:#52acf9"/><path d="M2 2v15h7v-1a1 1 0 0 1 2 0v1h6V2Z" style="fill:#d9dce1"/><path d="M15 2v7h1a1 1 0 0 1 0 2h-1v6h5.17a3 3 0 0 0 5.66 0H30V2Z" style="fill:#fff"/><path d="M17 2H2v15h7v-1a1 1 0 0 1 2 0v1h4v2.18a3 3 0 0 0 0 5.64V30h15V2Zm-4.18 13a3 3 0 0 0-5.64 0H4V4h11v5h1a1 1 0 0 1 0 2h-1v4ZM28 28H17v-5h-1a1 1 0 0 1 0-2h1v-4h3.18a3 3 0 0 0 5.64 0H28Zm-2-13h-2v1a1 1 0 0 1-2 0v-1h-5v-2.18a3 3 0 0 0 0-5.64V4h11v11Z"/></svg>